<svg width="519" height="402" viewBox="0 0 519 402" fill="none" xmlns="http://www.w3.org/2000/svg">
<rect width="519" height="402" rx="10" fill="#F1F1F1"/>
<path d="M289.721 225.114V177.798C289.721 174.08 286.68 171.038 282.962 171.038H235.645C231.928 171.038 228.886 174.08 228.886 177.798V225.114C228.886 228.832 231.928 231.874 235.645 231.874H282.962C286.68 231.874 289.721 228.832 289.721 225.114ZM248.826 208.148L255.924 216.698L266.401 203.213C267.077 202.335 268.429 202.335 269.105 203.247L280.968 219.064C281.156 219.315 281.271 219.614 281.299 219.926C281.327 220.239 281.268 220.553 281.127 220.834C280.987 221.115 280.771 221.351 280.504 221.516C280.237 221.681 279.93 221.768 279.616 221.768H239.093C237.673 221.768 236.896 220.146 237.775 219.03L246.19 208.215C246.832 207.337 248.117 207.303 248.826 208.148Z" fill="#767676"/>
</svg>
