<svg width="113" height="55" viewBox="0 0 113 55" fill="none" xmlns="http://www.w3.org/2000/svg">
<path fill-rule="evenodd" clip-rule="evenodd" d="M32.2001 33.3C32.3001 33.7 32.5001 34.2 32.7001 34.6C33.1001 35.9 33.3001 37.1 33.0001 38.3C32.6001 40.9 30.9001 43.1 28.4001 44.1C27.6001 44.5 26.6001 44.7 25.6001 44.7C25.4501 44.7 25.3001 44.675 25.1501 44.65C25.0001 44.625 24.8501 44.6 24.7001 44.6C23.6001 44.4 22.4001 44.1 21.2001 43.4C19.8001 42.6 18.3001 41.5 16.8001 39.8C15.2001 41.4 13.8001 42.6 12.4001 43.4C11.3001 44.1 10.1001 44.5 8.90009 44.6C8.60009 44.7 8.30009 44.7 8.00009 44.7C7.00009 44.7 6.00009 44.5 5.30009 44.3C2.80009 43.3 1.10009 41.1 0.70009 38.5C0.50009 37.2 0.60009 36 1.10009 34.7C1.20009 34.2 1.40009 33.8 1.60009 33.4C1.71843 33.1239 1.83676 32.8789 1.94896 32.6466C2.1212 32.29 2.27898 31.9634 2.40009 31.6V31.5C4.80009 26.3 7.40009 21 10.2001 15.7L10.3001 15.5C10.4308 15.1734 10.6041 14.8467 10.7922 14.4922L10.7922 14.4922L10.7922 14.4922C10.8921 14.304 10.9961 14.108 11.1001 13.9C11.2121 13.732 11.3242 13.556 11.4384 13.3767C11.732 12.9157 12.0401 12.432 12.4001 12C13.6001 10.7 15.1001 9.90002 16.9001 9.90002C18.7001 9.90002 20.3001 10.7 21.4001 12.1C21.8161 12.5161 22.0879 12.9802 22.3488 13.4257L22.3488 13.4257C22.4642 13.6227 22.5775 13.8161 22.7001 14C22.9001 14.5 23.2001 15.1 23.5001 15.6L23.6001 15.8C26.4001 21 29.0001 26.3 31.4001 31.5C31.6001 32.1 31.9001 32.7 32.2001 33.2999L32.2001 33.3L32.2001 33.3L32.2001 33.3ZM59.8001 18.6C59.8001 19.9 58.8001 20.9 57.5001 20.9C56.2001 20.9 55.2001 19.9 55.2001 18.6C55.2001 17.3 56.2001 16.3 57.5001 16.3C58.8001 16.4 59.8001 17.4 59.8001 18.6ZM50.4001 23.2V23.8C50.4001 23.8 49.3001 22.4 47.0001 22.4C43.2001 22.4 40.2001 25.3 40.2001 29.3C40.2001 33.3 43.2001 36.2 47.0001 36.2C49.4001 36.2 50.4001 34.8 50.4001 34.8V35.4C50.4001 35.7 50.6001 35.9 50.9001 35.9H53.7001V22.7H50.9001C50.6001 22.7 50.4001 23 50.4001 23.2ZM47.6001 33C48.8001 33 49.9001 32.4 50.4001 31.6V26.8C50.0001 26.1 48.8001 25.4 47.6001 25.4C45.3001 25.4 43.6001 26.8 43.6001 29.2C43.6001 31.6 45.3001 33 47.6001 33ZM55.8001 35.8H59.2001V22.7H55.8001V35.8ZM102.9 23.8C102.9 23.8 104 22.4 106.3 22.4C110.1 22.4 113 25.3 113 29.3C113 33.3 110 36.2 106.2 36.2C103.9 36.2 102.8 34.8 102.8 34.8V35.4C102.8 35.7 102.6 35.9 102.3 35.9H99.5001V16.5H102.9V23.8ZM105.7 33C104.4 33 103.4 32.3 102.9 31.6V26.9C103.4 26.2 104.6 25.5 105.7 25.5C108 25.5 109.7 26.9 109.7 29.3C109.7 31.7 108 33 105.7 33ZM97.7001 35.8V28C97.7001 25.9 97.3001 24.6 96.1001 23.7C95.1001 22.8 93.9001 22.4 92.4001 22.4C91.1001 22.4 89.8001 22.8 88.8001 23.8V23.2C88.8001 22.9 88.6001 22.7 88.3001 22.7H85.6001V35.8H89.0001V26.7C89.6001 25.9 90.7001 25.4 91.7001 25.4C93.6001 25.4 94.3001 26.2 94.3001 28.4V35.8H97.7001ZM77.4001 22.4C75.1001 22.4 74.0001 23.8 74.0001 23.8V16.5H70.6001V35.9H73.4001C73.7001 35.9 73.9001 35.7 73.9001 35.4V34.8C73.9001 34.8 75.0001 36.2 77.3001 36.2C81.1001 36.2 84.1001 33.3 84.1001 29.3C84.3001 25.3 81.3001 22.4 77.4001 22.4ZM74.1001 31.6C74.6001 32.3 75.6001 33 76.9001 33C79.1001 33 80.9001 31.7 80.9001 29.3C80.9001 26.9 79.2001 25.5 76.9001 25.5C75.8001 25.5 74.6001 26.2 74.1001 26.9V31.6ZM67.7001 22.4C68.7001 22.4 69.2001 22.6 69.2001 22.6V25.7C69.2001 25.7 66.4001 24.8 64.6001 26.7V35.9H61.2001V22.7H64.0001C64.3001 22.7 64.5001 22.9 64.5001 23.2V23.8C65.3001 23 66.7001 22.4 67.7001 22.4ZM16.8001 36.4C14.9001 34 13.7001 31.8 13.2001 29.9C13.0001 29.1 13.0001 28.4 13.1001 27.8C13.2001 27.2 13.4001 26.8 13.7001 26.3C14.4001 25.4 15.5001 24.8 16.8001 24.8C18.1001 24.8 19.3001 25.4 19.9001 26.3C20.2001 26.7 20.4001 27.2 20.5001 27.8C20.6001 28.4 20.6001 29.2 20.4001 29.9C19.9001 31.8 18.7001 34 16.8001 36.4ZM27.6001 42.2C29.3001 41.5 30.6001 39.9 30.8001 38.1C31.0001 37.2 30.9001 36.3 30.5001 35.4C30.4001 35.1 30.2001 34.7 30.0001 34.3L30.0001 34.3C29.8235 34.0057 29.6815 33.6766 29.5334 33.3334C29.4299 33.0936 29.3235 32.8468 29.2001 32.6C26.8001 27.4 24.2001 22.1 21.5001 16.9L21.4001 16.7C21.2001 16.2 20.9001 15.6 20.6001 15.1L20.6001 15.1C20.3001 14.6 20.0001 14.1 19.6001 13.6C18.9001 12.8 17.9001 12.3 16.8001 12.3C15.7001 12.3 14.7001 12.8 14.0001 13.6C13.6001 14 13.3001 14.5 13.0001 15.1C12.8001 15.6 12.5001 16.2 12.2001 16.7L12.1001 16.9C9.40009 22 6.80009 27.3 4.40009 32.5V32.6C4.32346 32.7533 4.24683 32.9 4.17186 33.0436C3.95335 33.462 3.749 33.8533 3.60009 34.3C3.40009 34.7 3.20009 35.1 3.10009 35.4C2.80009 36.4 2.70009 37.2 2.80009 38.1C3.00009 39.9 4.30009 41.5 6.00009 42.2C6.80009 42.5 7.70009 42.6 8.70009 42.5C9.60009 42.4 10.5001 42.1 11.4001 41.6C12.7001 40.9 14.0001 39.8 15.4001 38.2C13.1001 35.4 11.6001 32.8 11.1001 30.5C10.8001 29.4 10.8001 28.4 10.9001 27.5C11.0001 26.6 11.3001 25.8 11.8001 25.1C12.9001 23.5 14.8001 22.6 16.8001 22.6C18.9001 22.6 20.7001 23.5 21.8001 25.1C22.2001 25.8 22.6001 26.6 22.7001 27.5C22.8001 28.4 22.7001 29.4 22.5001 30.5C21.9001 32.8 20.5001 35.4 18.2001 38.2C19.7001 39.8 20.9001 40.9 22.2001 41.6C23.1001 42.1 24.0001 42.4 24.9001 42.5C25.8001 42.7 26.8001 42.5 27.6001 42.2Z" fill="#FF5A5F"/>
</svg>
